<svg viewBox="0 0 470 63" fill="none" xmlns="http://www.w3.org/2000/svg">
<g clip-path="url(#clip0_3_2)">
<rect width="470" height="63" rx="8" fill="#F1F5F9"/>
<rect x="0.5" y="0.5" width="469" height="62" rx="7.5" fill="#F1F5F9" stroke="#CBD5E1"/>
<path d="M34.4766 50H30.375V34.2266H16.3828V50H12.3047V15.875H16.3828V30.5469H30.375V15.875H34.4766V50ZM67.7953 41.1641H56.4047L53.6625 50H49.3266L60.3422 15.875H63.975L74.8031 50H70.4906L67.7953 41.1641ZM57.5766 37.3906H66.6469L62.1469 22.5781L57.5766 37.3906ZM89.8875 50V15.875H100.036C101.442 15.8906 102.817 16.0781 104.161 16.4375C105.505 16.7812 106.7 17.3203 107.747 18.0547C108.794 18.7891 109.63 19.7266 110.255 20.8672C110.88 22.0078 111.184 23.375 111.169 24.9688C111.153 25.8594 111.005 26.6719 110.723 27.4062C110.458 28.1406 110.091 28.7969 109.622 29.375C109.137 29.9688 108.598 30.4688 108.005 30.875C107.427 31.2812 106.723 31.6641 105.895 32.0234V32.0938C106.755 32.2969 107.583 32.6641 108.38 33.1953C109.177 33.7266 109.833 34.3125 110.348 34.9531C110.895 35.6562 111.317 36.4453 111.614 37.3203C111.927 38.1953 112.083 39.1406 112.083 40.1562C112.098 41.75 111.794 43.1562 111.169 44.375C110.544 45.5938 109.708 46.6094 108.661 47.4219C107.614 48.25 106.403 48.8828 105.028 49.3203C103.669 49.7578 102.262 49.9844 100.809 50H89.8875ZM94.2469 34.0391V46.3203H100.927C101.833 46.3047 102.692 46.1562 103.505 45.875C104.317 45.5781 105.036 45.1719 105.661 44.6562C106.286 44.1406 106.778 43.5078 107.137 42.7578C107.512 42.0078 107.7 41.1562 107.7 40.2031C107.716 39.2344 107.552 38.375 107.208 37.625C106.88 36.875 106.419 36.2344 105.825 35.7031C105.231 35.1875 104.536 34.7891 103.739 34.5078C102.942 34.2266 102.083 34.0703 101.161 34.0391H94.2469ZM94.2469 30.4297H100.294C101.106 30.4141 101.903 30.2891 102.684 30.0547C103.466 29.8047 104.161 29.4453 104.77 28.9766C105.38 28.5234 105.872 27.9609 106.247 27.2891C106.622 26.6172 106.809 25.8359 106.809 24.9453C106.809 23.9922 106.622 23.1797 106.247 22.5078C105.887 21.8359 105.403 21.2812 104.794 20.8438C104.169 20.4219 103.45 20.1094 102.637 19.9062C101.841 19.7031 101.02 19.5938 100.177 19.5781H94.2469V30.4297ZM128.363 15.875H148.988V19.6484H140.808V46.25H148.988V50H128.363V46.25H136.355V19.6484H128.363V15.875ZM189.806 19.5781H179.259V50H175.041V19.5781H164.494V15.875H189.806V19.5781ZM228.234 19.5781H217.688V50H213.469V19.5781H202.922V15.875H228.234V19.5781ZM254.944 36.0781H248.123V50H243.811V15.875H253.819C255.413 15.9062 256.913 16.1328 258.319 16.5547C259.725 16.9766 260.959 17.6094 262.022 18.4531C263.069 19.2969 263.889 20.3594 264.483 21.6406C265.092 22.9062 265.397 24.3984 265.397 26.1172C265.397 27.2266 265.233 28.2422 264.905 29.1641C264.592 30.0859 264.155 30.9219 263.592 31.6719C263.03 32.4219 262.358 33.0859 261.577 33.6641C260.795 34.2422 259.936 34.7344 258.998 35.1406L266.241 49.7188L266.217 50H261.647L254.944 36.0781ZM248.123 32.5156H253.936C254.905 32.5 255.819 32.3516 256.678 32.0703C257.538 31.7734 258.295 31.3516 258.952 30.8047C259.592 30.2578 260.1 29.5938 260.475 28.8125C260.85 28.0156 261.038 27.1016 261.038 26.0703C261.038 24.9766 260.858 24.0234 260.498 23.2109C260.139 22.3828 259.639 21.6875 258.998 21.125C258.358 20.5781 257.592 20.1641 256.702 19.8828C255.827 19.6016 254.866 19.4531 253.819 19.4375H248.123V32.5156ZM298.364 41.1641H286.973L284.231 50H279.895L290.911 15.875H294.544L305.372 50H301.059L298.364 41.1641ZM288.145 37.3906H297.216L292.716 22.5781L288.145 37.3906ZM342.605 39.7344C342.402 41.3125 341.995 42.7656 341.386 44.0938C340.777 45.4062 339.987 46.5312 339.019 47.4688C338.034 48.4219 336.87 49.1641 335.527 49.6953C334.198 50.2109 332.714 50.4688 331.073 50.4688C329.667 50.4688 328.386 50.2734 327.23 49.8828C326.089 49.4766 325.073 48.9219 324.183 48.2188C323.277 47.5156 322.495 46.6875 321.839 45.7344C321.198 44.7812 320.667 43.7422 320.245 42.6172C319.808 41.4922 319.48 40.3125 319.261 39.0781C319.058 37.8438 318.948 36.5938 318.933 35.3281V30.5703C318.948 29.3047 319.058 28.0547 319.261 26.8203C319.48 25.5859 319.808 24.4062 320.245 23.2812C320.667 22.1562 321.198 21.1172 321.839 20.1641C322.495 19.1953 323.277 18.3594 324.183 17.6562C325.073 16.9531 326.089 16.4062 327.23 16.0156C328.37 15.6094 329.652 15.4062 331.073 15.4062C332.777 15.4062 334.3 15.6719 335.644 16.2031C336.987 16.7188 338.144 17.4531 339.112 18.4062C340.081 19.375 340.855 20.5312 341.433 21.875C342.027 23.2188 342.417 24.7031 342.605 26.3281H338.269C338.128 25.2969 337.886 24.3359 337.542 23.4453C337.198 22.5547 336.737 21.7734 336.159 21.1016C335.581 20.4297 334.87 19.9062 334.027 19.5312C333.198 19.1406 332.214 18.9453 331.073 18.9453C330.042 18.9453 329.128 19.1172 328.331 19.4609C327.55 19.7891 326.878 20.2422 326.316 20.8203C325.737 21.3984 325.253 22.0703 324.862 22.8359C324.487 23.6016 324.183 24.4141 323.948 25.2734C323.714 26.1328 323.542 27.0156 323.433 27.9219C323.339 28.8125 323.292 29.6797 323.292 30.5234V35.3281C323.292 36.1719 323.339 37.0469 323.433 37.9531C323.542 38.8438 323.714 39.7188 323.948 40.5781C324.183 41.4531 324.487 42.2734 324.862 43.0391C325.237 43.8047 325.714 44.4766 326.292 45.0547C326.87 45.6484 327.55 46.1172 328.331 46.4609C329.112 46.7891 330.027 46.9531 331.073 46.9531C332.214 46.9531 333.198 46.7734 334.027 46.4141C334.87 46.0547 335.581 45.5469 336.159 44.8906C336.737 44.25 337.198 43.4922 337.542 42.6172C337.886 41.7266 338.128 40.7656 338.269 39.7344H342.605ZM367.111 34.1562L363.314 38.4688V50H358.884V15.875H363.314V32.5391L366.619 28.4141L376.627 15.875H381.9L369.97 30.8047L382.697 50H377.423L367.111 34.1562ZM416.133 34.2266H401.883V46.3203H418.5V50H397.547V15.875H418.289V19.5781H401.883V30.5469H416.133V34.2266ZM447.084 36.0781H440.264V50H435.952V15.875H445.959C447.553 15.9062 449.053 16.1328 450.459 16.5547C451.866 16.9766 453.1 17.6094 454.163 18.4531C455.209 19.2969 456.03 20.3594 456.623 21.6406C457.233 22.9062 457.538 24.3984 457.538 26.1172C457.538 27.2266 457.373 28.2422 457.045 29.1641C456.733 30.0859 456.295 30.9219 455.733 31.6719C455.17 32.4219 454.498 33.0859 453.717 33.6641C452.936 34.2422 452.077 34.7344 451.139 35.1406L458.381 49.7188L458.358 50H453.788L447.084 36.0781ZM440.264 32.5156H446.077C447.045 32.5 447.959 32.3516 448.819 32.0703C449.678 31.7734 450.436 31.3516 451.092 30.8047C451.733 30.2578 452.241 29.5938 452.616 28.8125C452.991 28.0156 453.178 27.1016 453.178 26.0703C453.178 24.9766 452.998 24.0234 452.639 23.2109C452.28 22.3828 451.78 21.6875 451.139 21.125C450.498 20.5781 449.733 20.1641 448.842 19.8828C447.967 19.6016 447.006 19.4531 445.959 19.4375H440.264V32.5156Z" fill="black"/>
<line x1="42.5" x2="42.5" y2="63" stroke="#CBD5E1"/>
<line x1="82.5" x2="82.5" y2="63" stroke="#CBD5E1"/>
<line x1="120.5" x2="120.5" y2="63" stroke="#CBD5E1"/>
<line x1="157.5" x2="157.5" y2="63" stroke="#CBD5E1"/>
<line x1="196.5" x2="196.5" y2="63" stroke="#CBD5E1"/>
<line x1="236.5" x2="236.5" y2="63" stroke="#CBD5E1"/>
<line x1="273.5" x2="273.5" y2="63" stroke="#CBD5E1"/>
<line x1="311.5" x2="311.5" y2="63" stroke="#CBD5E1"/>
<line x1="351.5" x2="351.5" y2="63" stroke="#CBD5E1"/>
<line x1="389.5" x2="389.5" y2="63" stroke="#CBD5E1"/>
<line x1="426.5" x2="426.5" y2="63" stroke="#CBD5E1"/>
</g>
<defs>
<clipPath id="clip0_3_2">
<rect width="470" height="63" rx="8" fill="white"/>
</clipPath>
</defs>
</svg>
