<svg viewBox="0 0 348 58" fill="none" xmlns="http://www.w3.org/2000/svg">
<g clip-path="url(#clip0_1_6)">
<rect width="348" height="58" rx="4" fill="white"/>
<rect width="348" height="58" fill="#F5F5F5"/>
<path d="M26.4766 47H22.375V31.2266H8.38281V47H4.30469V12.875H8.38281V27.5469H22.375V12.875H26.4766V47ZM50.1953 38.1641H38.8047L36.0625 47H31.7266L42.7422 12.875H46.375L57.2031 47H52.8906L50.1953 38.1641ZM39.9766 34.3906H49.0469L44.5469 19.5781L39.9766 34.3906ZM62.6875 47V12.875H72.8359C74.2422 12.8906 75.6172 13.0781 76.9609 13.4375C78.3047 13.7812 79.5 14.3203 80.5469 15.0547C81.5938 15.7891 82.4297 16.7266 83.0547 17.8672C83.6797 19.0078 83.9844 20.375 83.9688 21.9688C83.9531 22.8594 83.8047 23.6719 83.5234 24.4062C83.2578 25.1406 82.8906 25.7969 82.4219 26.375C81.9375 26.9688 81.3984 27.4688 80.8047 27.875C80.2266 28.2812 79.5234 28.6641 78.6953 29.0234V29.0938C79.5547 29.2969 80.3828 29.6641 81.1797 30.1953C81.9766 30.7266 82.6328 31.3125 83.1484 31.9531C83.6953 32.6562 84.1172 33.4453 84.4141 34.3203C84.7266 35.1953 84.8828 36.1406 84.8828 37.1562C84.8984 38.75 84.5938 40.1562 83.9688 41.375C83.3438 42.5938 82.5078 43.6094 81.4609 44.4219C80.4141 45.25 79.2031 45.8828 77.8281 46.3203C76.4688 46.7578 75.0625 46.9844 73.6094 47H62.6875ZM67.0469 31.0391V43.3203H73.7266C74.6328 43.3047 75.4922 43.1562 76.3047 42.875C77.1172 42.5781 77.8359 42.1719 78.4609 41.6562C79.0859 41.1406 79.5781 40.5078 79.9375 39.7578C80.3125 39.0078 80.5 38.1562 80.5 37.2031C80.5156 36.2344 80.3516 35.375 80.0078 34.625C79.6797 33.875 79.2188 33.2344 78.625 32.7031C78.0312 32.1875 77.3359 31.7891 76.5391 31.5078C75.7422 31.2266 74.8828 31.0703 73.9609 31.0391H67.0469ZM67.0469 27.4297H73.0938C73.9062 27.4141 74.7031 27.2891 75.4844 27.0547C76.2656 26.8047 76.9609 26.4453 77.5703 25.9766C78.1797 25.5234 78.6719 24.9609 79.0469 24.2891C79.4219 23.6172 79.6094 22.8359 79.6094 21.9453C79.6094 20.9922 79.4219 20.1797 79.0469 19.5078C78.6875 18.8359 78.2031 18.2812 77.5938 17.8438C76.9688 17.4219 76.25 17.1094 75.4375 16.9062C74.6406 16.7031 73.8203 16.5938 72.9766 16.5781H67.0469V27.4297ZM91.5625 12.875H112.188V16.6484H104.008V43.25H112.188V47H91.5625V43.25H99.5547V16.6484H91.5625V12.875ZM143.406 16.5781H132.859V47H128.641V16.5781H118.094V12.875H143.406V16.5781ZM172.234 16.5781H161.688V47H157.469V16.5781H146.922V12.875H172.234V16.5781ZM189.344 33.0781H182.523V47H178.211V12.875H188.219C189.812 12.9062 191.312 13.1328 192.719 13.5547C194.125 13.9766 195.359 14.6094 196.422 15.4531C197.469 16.2969 198.289 17.3594 198.883 18.6406C199.492 19.9062 199.797 21.3984 199.797 23.1172C199.797 24.2266 199.633 25.2422 199.305 26.1641C198.992 27.0859 198.555 27.9219 197.992 28.6719C197.43 29.4219 196.758 30.0859 195.977 30.6641C195.195 31.2422 194.336 31.7344 193.398 32.1406L200.641 46.7188L200.617 47H196.047L189.344 33.0781ZM182.523 29.5156H188.336C189.305 29.5 190.219 29.3516 191.078 29.0703C191.938 28.7734 192.695 28.3516 193.352 27.8047C193.992 27.2578 194.5 26.5938 194.875 25.8125C195.25 25.0156 195.438 24.1016 195.438 23.0703C195.438 21.9766 195.258 21.0234 194.898 20.2109C194.539 19.3828 194.039 18.6875 193.398 18.125C192.758 17.5781 191.992 17.1641 191.102 16.8828C190.227 16.6016 189.266 16.4531 188.219 16.4375H182.523V29.5156ZM223.164 38.1641H211.773L209.031 47H204.695L215.711 12.875H219.344L230.172 47H225.859L223.164 38.1641ZM212.945 34.3906H222.016L217.516 19.5781L212.945 34.3906ZM257.805 36.7344C257.602 38.3125 257.195 39.7656 256.586 41.0938C255.977 42.4062 255.188 43.5312 254.219 44.4688C253.234 45.4219 252.07 46.1641 250.727 46.6953C249.398 47.2109 247.914 47.4688 246.273 47.4688C244.867 47.4688 243.586 47.2734 242.43 46.8828C241.289 46.4766 240.273 45.9219 239.383 45.2188C238.477 44.5156 237.695 43.6875 237.039 42.7344C236.398 41.7812 235.867 40.7422 235.445 39.6172C235.008 38.4922 234.68 37.3125 234.461 36.0781C234.258 34.8438 234.148 33.5938 234.133 32.3281V27.5703C234.148 26.3047 234.258 25.0547 234.461 23.8203C234.68 22.5859 235.008 21.4062 235.445 20.2812C235.867 19.1562 236.398 18.1172 237.039 17.1641C237.695 16.1953 238.477 15.3594 239.383 14.6562C240.273 13.9531 241.289 13.4062 242.43 13.0156C243.57 12.6094 244.852 12.4062 246.273 12.4062C247.977 12.4062 249.5 12.6719 250.844 13.2031C252.188 13.7188 253.344 14.4531 254.312 15.4062C255.281 16.375 256.055 17.5312 256.633 18.875C257.227 20.2188 257.617 21.7031 257.805 23.3281H253.469C253.328 22.2969 253.086 21.3359 252.742 20.4453C252.398 19.5547 251.938 18.7734 251.359 18.1016C250.781 17.4297 250.07 16.9062 249.227 16.5312C248.398 16.1406 247.414 15.9453 246.273 15.9453C245.242 15.9453 244.328 16.1172 243.531 16.4609C242.75 16.7891 242.078 17.2422 241.516 17.8203C240.938 18.3984 240.453 19.0703 240.062 19.8359C239.688 20.6016 239.383 21.4141 239.148 22.2734C238.914 23.1328 238.742 24.0156 238.633 24.9219C238.539 25.8125 238.492 26.6797 238.492 27.5234V32.3281C238.492 33.1719 238.539 34.0469 238.633 34.9531C238.742 35.8438 238.914 36.7188 239.148 37.5781C239.383 38.4531 239.688 39.2734 240.062 40.0391C240.438 40.8047 240.914 41.4766 241.492 42.0547C242.07 42.6484 242.75 43.1172 243.531 43.4609C244.312 43.7891 245.227 43.9531 246.273 43.9531C247.414 43.9531 248.398 43.7734 249.227 43.4141C250.07 43.0547 250.781 42.5469 251.359 41.8906C251.938 41.25 252.398 40.4922 252.742 39.6172C253.086 38.7266 253.328 37.7656 253.469 36.7344H257.805ZM272.711 31.1562L268.914 35.4688V47H264.484V12.875H268.914V29.5391L272.219 25.4141L282.227 12.875H287.5L275.57 27.8047L288.297 47H283.023L272.711 31.1562ZM312.133 31.2266H297.883V43.3203H314.5V47H293.547V12.875H314.289V16.5781H297.883V27.5469H312.133V31.2266ZM333.484 33.0781H326.664V47H322.352V12.875H332.359C333.953 12.9062 335.453 13.1328 336.859 13.5547C338.266 13.9766 339.5 14.6094 340.562 15.4531C341.609 16.2969 342.43 17.3594 343.023 18.6406C343.633 19.9062 343.938 21.3984 343.938 23.1172C343.938 24.2266 343.773 25.2422 343.445 26.1641C343.133 27.0859 342.695 27.9219 342.133 28.6719C341.57 29.4219 340.898 30.0859 340.117 30.6641C339.336 31.2422 338.477 31.7344 337.539 32.1406L344.781 46.7188L344.758 47H340.188L333.484 33.0781ZM326.664 29.5156H332.477C333.445 29.5 334.359 29.3516 335.219 29.0703C336.078 28.7734 336.836 28.3516 337.492 27.8047C338.133 27.2578 338.641 26.5938 339.016 25.8125C339.391 25.0156 339.578 24.1016 339.578 23.0703C339.578 21.9766 339.398 21.0234 339.039 20.2109C338.68 19.3828 338.18 18.6875 337.539 18.125C336.898 17.5781 336.133 17.1641 335.242 16.8828C334.367 16.6016 333.406 16.4531 332.359 16.4375H326.664V29.5156Z" fill="black"/>
<line x1="29.5" y1="2.18557e-08" x2="29.5" y2="58" stroke="#767070"/>
<line x1="59.5" y1="2.18557e-08" x2="59.5" y2="58" stroke="#767070"/>
<line x1="87.5" y1="2.18557e-08" x2="87.5" y2="58" stroke="#767070"/>
<line x1="115.5" y1="2.18557e-08" x2="115.5" y2="58" stroke="#767070"/>
<line x1="260.5" y1="2.18557e-08" x2="260.5" y2="58" stroke="#767070"/>
<line x1="290.5" y1="2.18557e-08" x2="290.5" y2="58" stroke="#767070"/>
<line x1="318.5" y1="2.18557e-08" x2="318.5" y2="58" stroke="#767070"/>
<line x1="145.5" y1="2.18557e-08" x2="145.5" y2="58" stroke="#767070"/>
<line x1="175.5" y1="2.18557e-08" x2="175.5" y2="58" stroke="#767070"/>
<line x1="203.5" y1="2.18557e-08" x2="203.5" y2="58" stroke="#767070"/>
<line x1="231.5" y1="2.18557e-08" x2="231.5" y2="58" stroke="#767070"/>
</g>
<rect x="0.5" y="0.5" width="347" height="57" rx="3.5" stroke="black"/>
<defs>
<clipPath id="clip0_1_6">
<rect width="348" height="58" rx="4" fill="white"/>
</clipPath>
</defs>
</svg>
